<svg xmlns="http://www.w3.org/2000/svg" width="64" height="64" viewBox="0 0 64 64" fill="none">
    <!-- 背景 -->
    <rect width="64" height="64" rx="10" fill="#4CAF50"/>

    <!-- 书的主体 -->
    <path d="M12 48V16C12 14.8954 12.8954 14 14 14H34C35.1046 14 36 14.8954 36 16V48C36 49.1046 35.1046 50 34 50H14C12.8954 50 12 49.1046 12 48Z" fill="white" stroke="#2E7D32" stroke-width="2"/>

    <!-- 书的第二页 -->
    <path d="M28 14H50C51.1046 14 52 14.8954 52 16V48C52 49.1046 51.1046 50 50 50H28V14Z" fill="white" stroke="#2E7D32" stroke-width="2"/>

    <!-- 书中的书签 -->
    <path d="M36 18H46V42L41 38L36 42V18Z" fill="#FFEB3B" stroke="#FBC02D" stroke-width="2"/>
</svg>